<svg t="1739424681571" class="icon" viewBox="0 0 1025 1024" version="1.1" xmlns="http://www.w3.org/2000/svg" p-id="3965" width="100%" height="100%">
<path d="M947.680708 620.121039l-43.738098-43.769885A404.164181 404.164181 0 0 0 511.602973 76.28738h-3.178641c-7.310874 0-14.621748 0.222505-21.710117 0.667514a401.907346 401.907346 0 0 0-156.039478 41.830914l49.110001 49.046428A28.099185 28.099185 0 0 1 340.147087 207.565246L280.960795 148.506099c-10.171651 7.088369-19.993651 14.621748-29.466001 22.504777L209.822813 129.338895a31.627476 31.627476 0 0 0-44.818836 44.659904L260.839998 270.18447a26.28736 26.28736 0 0 1-18.626835 44.914195 25.905923 25.905923 0 0 1-18.49969-7.660524L174.253822 257.724198 133.694365 217.291887a42.116991 42.116991 0 0 0-59.631302 59.535942L134.139375 336.935927a404.227754 404.227754 0 0 0 135.282953 466.21125 415.352997 415.352997 0 0 0 69.230798 41.799127h346.153985A402.288783 402.288783 0 0 0 817.451793 743.801953l24.666253 24.570894a35.886855 35.886855 0 0 0 50.858253-50.858254l-32.898932-32.898932-41.322331-41.576622a26.891301 26.891301 0 0 1 0-38.14369 26.478078 26.478078 0 0 1 19.071845-7.755884 26.923088 26.923088 0 0 1 19.071845 7.755884l28.607767 28.607767 24.443748 24.475535a27.240952 27.240952 0 0 0 19.071845 7.755883 27.685962 27.685962 0 0 0 19.071845-7.755883 26.891301 26.891301 0 0 0-0.413223-37.857612z m-744.97805-76.28738h-7.43802v5.117611a3.846155 3.846155 0 0 1-3.877942 3.782583 3.782583 3.782583 0 0 1-3.814369-3.687223v-5.117612h-7.374447a3.432932 3.432932 0 1 1 0-6.865864H187.572327v-5.149398a3.814369 3.814369 0 1 1 7.628738 0V537.190299h7.43802a3.432932 3.432932 0 0 1 0 6.865865z m87.507981-183.502935a9.535922 9.535922 0 1 1 9.535923-9.535923 9.535922 9.535922 0 0 1-9.535923 9.631282zM680.579519 175.49276h-7.438019v5.117612a3.782583 3.782583 0 0 1-3.750797 3.750796 3.909728 3.909728 0 0 1-3.877941-3.782583v-5.085825H658.011169a3.464718 3.464718 0 0 1-3.432932-3.432932 3.528291 3.528291 0 0 1 3.432932-3.432932h7.43802v-5.149398a3.846155 3.846155 0 0 1 3.877942-3.877942 3.814369 3.814369 0 0 1 3.750796 3.877942v5.149398h7.438019a3.432932 3.432932 0 1 1 0 6.865864z m85.823302 511.761173a9.535922 9.535922 0 0 1 0-19.071845 9.535922 9.535922 0 1 1 0 19.071845z" fill="#E6E6E6" p-id="3966"></path><path d="M773.809055 859.917702a14.844253 14.844253 0 0 1-4.354738 10.489515 14.558175 14.558175 0 0 1-10.489515 4.354738H142.721705a15.003185 15.003185 0 0 1-14.971398-14.971398 15.098544 15.098544 0 0 1 14.844253-14.971399h616.115951a15.22569 15.22569 0 0 1 15.098544 15.098544z m95.740661 65.797865a14.971398 14.971398 0 0 1-14.971398 14.844253h-352.829132a15.003185 15.003185 0 0 1-14.971398-14.971398 15.034971 15.034971 0 0 1 14.971398-14.844253h352.829132a15.003185 15.003185 0 0 1 14.971398 14.971398z m71.741924-65.797865a14.876039 14.876039 0 0 1-14.844253 14.844253h-107.628778a15.003185 15.003185 0 0 1-14.971399-14.971398 14.526389 14.526389 0 0 1 4.450098-10.489515 14.78068 14.78068 0 0 1 10.521301-4.481884h107.628778a15.193903 15.193903 0 0 1 14.844253 15.098544z m-493.547561 80.769264h-47.870331a14.971398 14.971398 0 0 1 0-29.942797h47.870331a14.971398 14.971398 0 0 1 0 29.942797z m-101.716507 0H208.51957a14.971398 14.971398 0 1 1 0-29.942797h137.571575a14.971398 14.971398 0 0 1 0 29.942797z m391.831055 24.316602a29.497787 29.497787 0 1 0 29.497787 29.497787 29.56136 29.56136 0 0 0-29.434214-29.497787z m0 47.870331a18.340758 18.340758 0 1 1 18.277185-18.372544 18.340758 18.340758 0 0 1-18.213612 18.372544zM26.065587 478.004007a26.064855 26.064855 0 1 0 26.064855 26.033069 26.033068 26.033068 0 0 0-26.064855-26.033069z m0 40.877321a14.844253 14.844253 0 1 1 14.876039-14.844252 14.812466 14.812466 0 0 1-14.876039 14.844252zM289.288834 0a37.476175 37.476175 0 1 0 37.476175 37.476175A37.507962 37.507962 0 0 0 289.288834 0z m0 63.763535a26.28736 26.28736 0 1 1 26.287359-26.28736A26.28736 26.28736 0 0 1 289.288834 63.763535z m29.942796 915.766422a14.971398 14.971398 0 1 1-14.971398-14.971399 15.003185 15.003185 0 0 1 14.971398 14.971399zM988.939466 270.756625a18.150039 18.150039 0 1 0 36.300078 0 18.150039 18.150039 0 1 0-36.300078 0zM857.534454 187.031226a14.971398 14.971398 0 1 0 14.971398-14.971398 14.939612 14.939612 0 0 0-14.971398 14.971398z" fill="#E6E6E6" p-id="3967"></path><path d="M695.868782 403.687385H315.830484l30.133516 118.404371 0.254291 0.890019 33.693593 125.270235h294.34214a22.027981 22.027981 0 0 0 22.250486-19.071845l21.741903-201.843692a21.932622 21.932622 0 0 0-22.377631-23.649088z m-61.315982 193.89709a16.560719 16.560719 0 0 1-11.570253 4.831534h-191.163459a16.433573 16.433573 0 0 1 0-32.83536h191.036314a16.433573 16.433573 0 0 1 16.401786 16.433573 16.147495 16.147495 0 0 1-4.704388 11.570253z m14.240311-61.443127a16.560719 16.560719 0 0 1-11.570253 4.831534h-219.644081a16.433573 16.433573 0 0 1-16.401786-16.497146 15.893204 15.893204 0 0 1 4.831534-11.570252 16.560719 16.560719 0 0 1 11.570252-4.831535h219.516936a16.433573 16.433573 0 0 1 16.401786 16.401787 16.147495 16.147495 0 0 1-4.704388 11.665612z m6.865864-61.443127a16.560719 16.560719 0 0 1-11.570253 4.831534H410.712913a16.401787 16.401787 0 0 1 0-32.803573h233.502955a16.465359 16.465359 0 0 1 16.433573 16.401786 16.81501 16.81501 0 0 1-4.990466 11.570253z" fill="#FFFFFF" p-id="3968"></path><path d="M718.405345 406.166725a30.324233 30.324233 0 0 0-22.631923-9.949146H314.050446l-2.161476-8.645903v-0.254291l-12.333127-47.043885a10.998097 10.998097 0 0 0-10.712019-8.391611H246.377182a10.934524 10.934524 0 1 0 0 21.869048h33.693593l10.171651 38.525127a0.476796 0.476796 0 0 0 0 0.381437v0.508583l65.797865 257.692411 0.381437 51.271477a11.029884 11.029884 0 0 0 10.934524 10.934524h317.864083a10.934524 10.934524 0 0 0 0-21.869049H378.290777v-35.632563h296.122179a29.434214 29.434214 0 0 0 29.752078-25.683418l21.614758-201.970838a28.003826 28.003826 0 0 0-7.374447-21.741903z m-0.254291 20.851883l-21.741904 201.843693a22.027981 22.027981 0 0 1-22.250485 19.071845h-294.342141l-33.566447-125.14309-0.254291-0.890019L315.830484 403.687385h380.038298a21.741903 21.741903 0 0 1 22.536563 23.331223zM413.764408 757.311177a30.292447 30.292447 0 1 0 30.260661-30.260661 30.292447 30.292447 0 0 0-30.260661 30.260661zM572.187867 757.311177a30.260661 30.260661 0 1 0 60.394176 0 30.260661 30.260661 0 1 0-60.394176 0z" fill="#A8A8A8" p-id="3969"></path></svg>